# xmcd CD database file
#
# Track frame offsets:
#	182
#	22407
#	40632
#	67832
#	85020
#	100732
#	120645
#	139145
#	163807
#	181345
#	200832
#	230845
#	255845
#
# Disc length: 3736 seconds
#
# Revision: 3
# Processed by: cddbd v1.5.2PL0 Copyright (c) Steve Scherf et al.
# Submitted via: CDex 1.70beta2
#
DISCID=ae0e960d
DTITLE=Clarence 'Gatemouth' Brown - The Man
DYEAR=1994
DGENRE=Blues
TTITLE0=Honky Tonk
TTITLE1=Early In The Morning
TTITLE2=You Can Disagree
TTITLE3=Say You Love Me
TTITLE4=I Wonder
TTITLE5=Unchained Melody
TTITLE6=Big Mammou
TTITLE7=There You Are
TTITLE8=Solid Gold Plated Fool
TTITLE9=Old Folks Cry A Lot More (Than We'll Ever Know)
TTITLE10=Jambalaya
TTITLE11=Someday My Luck Will Change
TTITLE12=Up Jumped The Devil
EXTD=YEAR: 1994
EXTT0=
EXTT1=
EXTT2=
EXTT3=
EXTT4=
EXTT5=
EXTT6=
EXTT7=
EXTT8=
EXTT9=
EXTT10=
EXTT11=
EXTT12=
PLAYORDER=
